<svg id="Footer" xmlns="http://www.w3.org/2000/svg" viewBox="0 0 134.81 130.64"><defs><style>.cls-1{fill:none;stroke:#fcf8f0;stroke-linecap:round;stroke-linejoin:round;stroke-width:2px;}.cls-2{fill:#fcf8f0;}</style></defs><rect class="cls-1" x="21.7" y="30.29" width="91.4" height="62.61" rx="3.28"/><line class="cls-1" x1="30.34" y1="103.91" x2="104.47" y2="103.91"/><line class="cls-1" x1="43.24" y1="92.89" x2="43.24" y2="103.91"/><line class="cls-1" x1="91.57" y1="92.89" x2="91.57" y2="103.29"/><path class="cls-2" d="M53.62,63.13H45.49v8.56H42V51.49H54.81v2.83H45.49v6h8.13Z"/><path class="cls-2" d="M73.62,71.69h-3.5v-9h-9v9h-3.5V51.49h3.5V59.9h9V51.49h3.5Z"/><path class="cls-2" d="M77.76,71.69V51.49h6a9.31,9.31,0,0,1,4.75,1.2,8.12,8.12,0,0,1,3.21,3.38,10.7,10.7,0,0,1,1.14,5v1a10.72,10.72,0,0,1-1.15,5.05,8.06,8.06,0,0,1-3.26,3.36,9.84,9.84,0,0,1-4.85,1.18Zm3.51-17.37V68.88h2.29a5.28,5.28,0,0,0,4.24-1.72,7.57,7.57,0,0,0,1.5-5V61.08a7.66,7.66,0,0,0-1.43-5,5,5,0,0,0-4.14-1.74Z"/></svg>