<svg id="Footer" xmlns="http://www.w3.org/2000/svg" viewBox="0 0 281.87 72.25"><defs><style>.cls-1{fill:#fcf8f0;}</style></defs><rect class="cls-1" x="179.09" y="12.77" width="5.09" height="5.79" rx="0.26"/><path class="cls-1" d="M109.64,24.25a9.66,9.66,0,0,0-4.59,1.09,8.83,8.83,0,0,0-2.45,1.88.25.25,0,0,1-.44-.17V24.44a.26.26,0,0,0-.26-.26H97.33a.26.26,0,0,0-.26.26V52.72a.26.26,0,0,0,.26.26h4.83V43.87q0-5.26,0-10.53a2.32,2.32,0,0,1,0-.59c.32-1.16,1.74-2.33,2.7-3a6.49,6.49,0,0,1,3.57-1.06,4.31,4.31,0,0,1,3.94,2.16q1.32,2.14,1.32,6.63v15.2A.25.25,0,0,0,114,53h4.58a.25.25,0,0,0,.25-.26V36.89c0-3.87-.78-6.94-2.36-9.22A7.78,7.78,0,0,0,109.64,24.25Z"/><rect class="cls-1" x="179.09" y="24.21" width="5.09" height="28.9" rx="0.26"/><path class="cls-1" d="M139.86,44.57a1.18,1.18,0,0,1-.1.3,6.8,6.8,0,0,1-2.42,2.66,5.87,5.87,0,0,1-3.39,1,4.13,4.13,0,0,1-3.83-1.87A11.08,11.08,0,0,1,129,41V24.6a.25.25,0,0,0-.25-.26h-4.57a.25.25,0,0,0-.26.26V41.66q0,5.52,2.19,8.49t6.69,3A9.17,9.17,0,0,0,137.17,52a8.16,8.16,0,0,0,2.3-1.81.26.26,0,0,1,.45.17v2.39a.25.25,0,0,0,.25.25h4.57a.25.25,0,0,0,.26-.25V24.6a.25.25,0,0,0-.26-.26h-4.57a.25.25,0,0,0-.25.26v7.86c0,3.69-.13,7.41,0,11.1A3.75,3.75,0,0,1,139.86,44.57Z"/><path class="cls-1" d="M173.4,35a34.57,34.57,0,0,1,0,4.54c-.23,4.25-1.15,8.95-4.78,11.65a9.51,9.51,0,0,1-5.87,1.9,11.17,11.17,0,0,1-4.35-.85,9,9,0,0,1-2.83-1.86.25.25,0,0,0-.43.18v2.24a.26.26,0,0,1-.25.26h-4.58a.26.26,0,0,1-.25-.26V12.87a.25.25,0,0,1,.25-.25H155a.26.26,0,0,1,.26.25V26.22L155.18,35a.13.13,0,0,1,0,.06v3.74c0,2-.19,4.08.71,6a8.22,8.22,0,0,0,.91,1.5,6.18,6.18,0,0,0,5.11,2.52,5.76,5.76,0,0,0,5-2.92c1.22-1.86,1.43-4.19,1.62-6.37a16.5,16.5,0,0,0-.53-6.92,5.61,5.61,0,0,0-3.73-3.64,4.18,4.18,0,0,0-2.75.44,6.74,6.74,0,0,0-3.06,3.2c-.28.6-.47,1.24-.76,1.84,0-.4,0-1,0-1.35a14.42,14.42,0,0,1,0-1.47,9.92,9.92,0,0,1,.69-2.79c1.66-4.22,7.19-5.5,10.78-3C172.08,27.82,173.12,31.45,173.4,35Z"/><path class="cls-1" d="M253.09,35.1V52.8a.26.26,0,0,1-.26.26h-4.69a.26.26,0,0,1-.25-.26V50.33a.26.26,0,0,0-.44-.18A10.53,10.53,0,0,1,245.08,52a8.73,8.73,0,0,1-4.27,1.1,7.07,7.07,0,0,1-5.38-2.26,8.15,8.15,0,0,1-2.1-5.77v-.27a8.3,8.3,0,0,1,1.23-4.37h0a4.62,4.62,0,0,1,.37-.5,6.72,6.72,0,0,1,1.87-1.52c2.4-1.34,5.29-1.14,7.87-.37h0c.36.11.71.22,1.05.35h0c-.12,0-.49,0-1,0h0l-.28,0-.15,0-.81.1a6.17,6.17,0,0,0-4.63,3.6c-.92,2.14-.4,5.37,1.89,6.51a4.52,4.52,0,0,0,4.61-.65,8.62,8.62,0,0,0,1.51-1.32c.23-.25.44-.52.65-.79a1.54,1.54,0,0,0,.42-.89c0-2.33,0-4.67,0-7,0-1.43,0-2.91-.1-4.35a6.69,6.69,0,0,0-1-3.53A4.45,4.45,0,0,0,243,28.71a10.58,10.58,0,0,0-5.12,1.42.25.25,0,0,1-.37-.23V26a.25.25,0,0,1,.13-.23A13.67,13.67,0,0,1,244,24.25q4.62,0,6.84,2.57a10,10,0,0,1,2,5.36A23.93,23.93,0,0,1,253.09,35.1Z"/><path class="cls-1" d="M230.73,48.94v3.91a.26.26,0,0,1-.26.26h-6.26a5.65,5.65,0,0,1-4.37-1.94,7.46,7.46,0,0,1-1.58-4.83V13.11a.26.26,0,0,1,.26-.25h4.57a.26.26,0,0,1,.26.25s-.08,31.9,0,32.7.34,2.71,2.33,2.88c.49.05,4.79,0,4.79,0A.26.26,0,0,1,230.73,48.94Z"/><path class="cls-1" d="M270.38,48.68h-3.3l-.72,0-.77,0c-2-.17-2.24-2-2.33-2.88,0-.18,0-2,0-4.6,0-.73,0-1.45,0-2.18V22.62h6.06a.26.26,0,0,0,.26-.25V18.81a.26.26,0,0,0-.26-.26h-6.06V13.12h0a.26.26,0,0,0-.26-.25h-4.57a.26.26,0,0,0-.26.25h0v5.43h-4a.26.26,0,0,0-.25.26v3.56a.25.25,0,0,0,.25.25h4V46.33h0v.06a7.32,7.32,0,0,0,1.58,4.78,4.89,4.89,0,0,0,1.91,1.41,7.07,7.07,0,0,0,2.46.51h6.26a.26.26,0,0,0,.26-.25h0V48.94h0A.26.26,0,0,0,270.38,48.68Z"/><path class="cls-1" d="M73.37,33.88A17.66,17.66,0,0,0,73.59,31a18,18,0,0,0-33.52-9.11,12.55,12.55,0,0,0-18.75,10.9c0,.15,0,.3,0,.45h-.18a9.92,9.92,0,0,0,0,19.84H47V21.9a.22.22,0,0,1,.22-.23h4a.23.23,0,0,1,.23.23V24a.22.22,0,0,0,.38.16,7.84,7.84,0,0,1,2.48-1.62,9.73,9.73,0,0,1,3.83-.75,8.46,8.46,0,0,1,5.16,1.66A10.81,10.81,0,0,1,66.76,28,16.24,16.24,0,0,1,68,34.39a16.37,16.37,0,0,1-1.18,6.26,10.94,10.94,0,0,1-3.42,4.63,8.11,8.11,0,0,1-2.27,1.25,7.2,7.2,0,0,1-4.93,0,6,6,0,0,1-1.78-1.15c-2-1.84-2.39-4.68-2.16-7.22h0v0A14.22,14.22,0,0,0,53,40a4.8,4.8,0,0,0,.52.83,5.74,5.74,0,0,0,4.06,2.14,4.5,4.5,0,0,0,4.11-2.08,11.2,11.2,0,0,0,1.76-6.46,11.19,11.19,0,0,0-1.67-6.26,5.06,5.06,0,0,0-4.39-2.55,5.44,5.44,0,0,0-4.5,2.2c-1.49,1.91-1.41,4.06-1.42,6.35,0,1.15,0,2.3,0,3.45a.13.13,0,0,0,0,.06l.1,7.63v7.84H70a9.91,9.91,0,0,0,3.4-19.23Z"/><path class="cls-1" d="M208.63,51.48c-3.59,2.52-9.12,1.24-10.78-3a10,10,0,0,1-.69-2.79,14.62,14.62,0,0,1,0-1.48c0-.38,0-.94,0-1.34.29.59.48,1.23.76,1.84a6.83,6.83,0,0,0,3.06,3.2,4.18,4.18,0,0,0,2.75.43,5.57,5.57,0,0,0,3.73-3.64,16.44,16.44,0,0,0,.53-6.91c-.19-2.19-.4-4.51-1.62-6.37a5.74,5.74,0,0,0-5-2.92,6.18,6.18,0,0,0-5.11,2.52,7.9,7.9,0,0,0-.91,1.5c-.9,1.89-.71,3.94-.71,6v3.73s0,.05,0,.07l.11,8.73V64.4a.26.26,0,0,1-.26.26h-4.7a.25.25,0,0,1-.25-.26V24.46a.25.25,0,0,1,.25-.26h4.58a.25.25,0,0,1,.25.26v2.23a.25.25,0,0,0,.43.19A9,9,0,0,1,197.86,25a11,11,0,0,1,4.35-.85,9.51,9.51,0,0,1,5.87,1.9c3.63,2.7,4.55,7.39,4.78,11.64a34.55,34.55,0,0,1,0,4.54C212.55,45.82,211.51,49.46,208.63,51.48Z"/></svg>