<svg id="Footer" xmlns="http://www.w3.org/2000/svg" viewBox="0 0 154.55 72.25"><defs><style>.cls-1{fill:#fcf8f0;}</style></defs><path class="cls-1" d="M119.89,37.34a28.15,28.15,0,0,0,.33-4.34A27.58,27.58,0,0,0,68.86,19.05,19.19,19.19,0,0,0,40.14,35.74c0,.23,0,.46,0,.69h-.28a15.2,15.2,0,0,0,0,30.4H79.43V19a.34.34,0,0,1,.34-.34h6.16a.35.35,0,0,1,.35.34v3.18a.34.34,0,0,0,.58.24,12.28,12.28,0,0,1,3.8-2.49,15,15,0,0,1,5.87-1.14,12.88,12.88,0,0,1,7.91,2.55,16.53,16.53,0,0,1,5.31,7,24.86,24.86,0,0,1,1.89,9.83,25.12,25.12,0,0,1-1.81,9.6,16.85,16.85,0,0,1-5.23,7.09,12.74,12.74,0,0,1-3.49,1.91,11.07,11.07,0,0,1-7.55,0,9.3,9.3,0,0,1-2.73-1.75c-3.06-2.83-3.65-7.18-3.31-11.06h0a.2.2,0,0,1,0,.05,21.89,21.89,0,0,0,1.1,2.75,7.27,7.27,0,0,0,.79,1.27,8.81,8.81,0,0,0,6.22,3.28A6.91,6.91,0,0,0,102,48a17.25,17.25,0,0,0,2.69-9.9,17.22,17.22,0,0,0-2.56-9.6,7.75,7.75,0,0,0-6.73-3.9A8.33,8.33,0,0,0,88.46,28c-2.28,2.92-2.16,6.22-2.18,9.73,0,1.76,0,3.53,0,5.29a.19.19,0,0,0,0,.08l.15,11.7v12h28.22a15.2,15.2,0,0,0,5.22-29.48Z"/></svg>