<svg id="Footer" xmlns="http://www.w3.org/2000/svg" viewBox="0 0 134.81 130.64"><defs><style>.cls-1{fill:none;stroke:#fcf8f0;stroke-linecap:round;stroke-linejoin:round;stroke-width:2px;}</style></defs><path class="cls-1" d="M78.42,56.28V33.85a1.64,1.64,0,0,0-1.63-1.64H57.06a1.65,1.65,0,0,0-1.64,1.64V56.28a1.63,1.63,0,0,1-1.63,1.63H46.36a1.64,1.64,0,0,0-1.28,2.67L65.67,86.15a1.64,1.64,0,0,0,2.53,0L89.62,60.6a1.64,1.64,0,0,0-1.25-2.69H80.06A1.64,1.64,0,0,1,78.42,56.28Z"/><path class="cls-1" d="M38.72,78.51V96.79a1.65,1.65,0,0,0,1.64,1.64H94.45a1.65,1.65,0,0,0,1.64-1.64V78.51"/></svg>