<svg id="Footer" xmlns="http://www.w3.org/2000/svg" viewBox="0 0 209.11 146.72"><defs><style>.cls-1,.cls-2{fill:none;stroke:#000;stroke-miterlimit:10;stroke-width:0.96px;}.cls-2{stroke-linecap:round;}</style></defs><path class="cls-1" d="M174.27,86,139,107.51c-1.75,1.28-2.57,1.23-3.67.3L54.16,33.22c-1.09-.93-.4-2,.81-2.42L98.5,23.14c2.42-.81,3.15,0,4.25,1l71.14,58.57A2.25,2.25,0,0,1,174.27,86Z"/><path class="cls-2" d="M53.35,31.61c-2.41.8-1.49,3.5-.4,4.43l82,75c1.09.93,1.72,1.24,3.47,0l36.28-23.38s2-.81.8-3.22"/><path class="cls-2" d="M162.58,96.09l8.89,7.94c1.1.93.91,2.26,0,3.35L136.17,131.7c-1.74,1.27-2.57,1.22-3.66.3L51.74,55.79c-1.09-.93-.4-2,.81-2.42l14.11-3.63"/><path class="cls-2" d="M50.94,54.18c-2.42.8-1.5,3.5-.41,4.43l81.58,76.61c1.09.93,1.72,1.24,3.47,0L171.85,109a2.85,2.85,0,0,0,.81-4"/><path class="cls-2" d="M62,55.45c.89,1,1,2.17.21,2.92a2.24,2.24,0,0,1-3.11-.44c-.9-1-1.12-2.64-.13-3.15A2.34,2.34,0,0,1,62,55.45Z"/><path class="cls-2" d="M61.78,58.91a2.41,2.41,0,0,1-3.36-.45c-1-1.06-1.19-2.83-.12-3.39"/><line class="cls-2" x1="117.82" y1="58.02" x2="116.61" y2="64.47"/><line class="cls-2" x1="122.07" y1="57.75" x2="120.46" y2="67.02"/></svg>